<svg width="156" height="166" viewBox="0 0 156 166" fill="none" xmlns="http://www.w3.org/2000/svg">
<circle cx="78" cy="88" r="78" fill="#EB4C38"/>
<g opacity="0.2">
<path d="M142.25 28.6666C141.526 28.6666 124.871 28.7705 110 35.862C95.1292 28.7705 78.4739 28.6666 77.7501 28.6666C76.7997 28.6666 75.8883 29.0442 75.2163 29.7162C74.5443 30.3882 74.1667 31.2996 74.1667 32.25V67.664C74.1668 68.1448 74.2635 68.6207 74.4513 69.0634C74.639 69.506 74.914 69.9063 75.2597 70.2405C75.9584 70.9141 76.9797 71.3334 77.8719 71.2438L78.327 71.2402C80.7744 71.2402 93.721 71.5914 108.484 78.4965C108.542 78.5251 108.606 78.5144 108.663 78.5359C109.09 78.7115 109.538 78.8333 110 78.8333C110.462 78.8333 110.91 78.7115 111.34 78.5359C111.398 78.5144 111.462 78.5251 111.519 78.4965C126.283 71.5878 139.229 71.2402 141.677 71.2402L142.132 71.2438C142.985 71.3334 144.042 70.9141 144.744 70.2405C145.439 69.5632 145.833 68.6315 145.833 67.664V32.25C145.833 31.2996 145.456 30.3882 144.784 29.7162C144.112 29.0442 143.2 28.6666 142.25 28.6666ZM81.3334 36.0089C86.6547 36.4066 97.032 37.7289 106.417 42.0719V69.814C95.6667 65.6036 86.3859 64.4605 81.3334 64.1667V36.0089ZM138.667 64.1667C133.614 64.4605 124.333 65.6036 113.583 69.814V42.0719C122.968 37.7289 133.346 36.4066 138.667 36.0089V64.1667Z" fill="white"/>
<path d="M110 28.6666C115.937 28.6666 120.75 23.8537 120.75 17.9166C120.75 11.9796 115.937 7.16663 110 7.16663C104.063 7.16663 99.25 11.9796 99.25 17.9166C99.25 23.8537 104.063 28.6666 110 28.6666Z" fill="white"/>
</g>
<path d="M43.0089 38.54H45.8589V54.92H43.0089V47.87H40.2189V54.86H37.3989V38.9H40.2189V45.32H43.0089V38.54ZM29.3589 49.46C29.2989 49.68 29.1089 49.98 28.7889 50.36C28.4689 50.72 28.1689 51.04 27.8889 51.32C27.4889 51.74 26.9489 52.25 26.2689 52.85C25.6089 53.43 24.8289 54.08 23.9289 54.8L22.0989 52.76C23.1189 52 23.9889 51.3 24.7089 50.66C25.4289 50.02 25.9989 49.47 26.4189 49.01C26.7189 48.69 26.9589 48.4 27.1389 48.14C27.3389 47.86 27.4889 47.59 27.5889 47.33C27.7089 47.05 27.7889 46.75 27.8289 46.43C27.8689 46.09 27.8889 45.69 27.8889 45.23V44.33H23.1789V41.87H27.8889V38.57H30.7689V41.87H35.1189V44.33H30.7689V45.08C30.7689 45.5 30.7789 45.87 30.7989 46.19C30.8389 46.51 30.9089 46.81 31.0089 47.09C31.1289 47.37 31.2889 47.65 31.4889 47.93C31.6889 48.19 31.9689 48.49 32.3289 48.83C32.8489 49.35 33.3989 49.86 33.9789 50.36C34.5789 50.86 35.2489 51.38 35.9889 51.92L34.2189 54.02C33.5389 53.48 32.9389 52.99 32.4189 52.55C31.9189 52.09 31.4489 51.66 31.0089 51.26C30.6089 50.9 30.2589 50.57 29.9589 50.27C29.6589 49.95 29.4689 49.68 29.3889 49.46H29.3589ZM27.7089 56.36H45.8589V66.47H42.8889V58.91H27.7089V56.36ZM51.7795 66.38V59.45H66.9595V57.41H51.6295V54.98H69.8695V61.82H54.6895V63.95H70.6795V66.38H51.7795ZM73.5295 50.6V53.06H48.1495V50.6H73.5295ZM60.8395 38.69C62.2195 38.69 63.4495 38.81 64.5295 39.05C65.6295 39.27 66.5595 39.59 67.3195 40.01C68.0795 40.43 68.6595 40.94 69.0595 41.54C69.4795 42.12 69.6895 42.76 69.6895 43.46V44.18C69.6895 44.88 69.4795 45.53 69.0595 46.13C68.6595 46.71 68.0795 47.21 67.3195 47.63C66.5595 48.05 65.6295 48.38 64.5295 48.62C63.4495 48.84 62.2195 48.95 60.8395 48.95C59.4595 48.95 58.2195 48.84 57.1195 48.62C56.0395 48.38 55.1195 48.05 54.3595 47.63C53.5995 47.21 53.0095 46.71 52.5895 46.13C52.1895 45.53 51.9895 44.88 51.9895 44.18V43.46C51.9895 42.76 52.1895 42.12 52.5895 41.54C53.0095 40.94 53.5995 40.43 54.3595 40.01C55.1195 39.59 56.0395 39.27 57.1195 39.05C58.2195 38.81 59.4595 38.69 60.8395 38.69ZM60.8395 46.49C62.7395 46.49 64.1995 46.26 65.2195 45.8C66.2595 45.32 66.7795 44.76 66.7795 44.12V43.52C66.7795 42.88 66.2595 42.33 65.2195 41.87C64.1995 41.39 62.7395 41.15 60.8395 41.15C58.9395 41.15 57.4695 41.39 56.4295 41.87C55.4095 42.33 54.8995 42.88 54.8995 43.52V44.12C54.8995 44.76 55.4095 45.32 56.4295 45.8C57.4695 46.26 58.9395 46.49 60.8395 46.49ZM89.59 39.05C90.73 39.05 91.73 39.23 92.59 39.59C93.45 39.93 94.16 40.38 94.72 40.94C95.3 41.5 95.73 42.12 96.01 42.8C96.31 43.46 96.46 44.12 96.46 44.78V45.92C96.46 46.58 96.31 47.25 96.01 47.93C95.73 48.59 95.3 49.2 94.72 49.76C94.16 50.32 93.45 50.78 92.59 51.14C91.73 51.48 90.73 51.65 89.59 51.65C88.45 51.65 87.45 51.48 86.59 51.14C85.73 50.78 85.01 50.32 84.43 49.76C83.87 49.2 83.44 48.59 83.14 47.93C82.86 47.25 82.72 46.58 82.72 45.92V44.78C82.72 44.12 82.86 43.46 83.14 42.8C83.44 42.12 83.87 41.5 84.43 40.94C85.01 40.38 85.73 39.93 86.59 39.59C87.45 39.23 88.45 39.05 89.59 39.05ZM89.59 49.1C90.23 49.1 90.8 49.01 91.3 48.83C91.8 48.63 92.22 48.38 92.56 48.08C92.9 47.76 93.16 47.4 93.34 47C93.52 46.6 93.61 46.2 93.61 45.8V44.9C93.61 44.5 93.52 44.11 93.34 43.73C93.16 43.33 92.9 42.98 92.56 42.68C92.22 42.36 91.8 42.11 91.3 41.93C90.8 41.73 90.23 41.63 89.59 41.63C88.95 41.63 88.38 41.73 87.88 41.93C87.38 42.11 86.96 42.36 86.62 42.68C86.28 42.98 86.02 43.33 85.84 43.73C85.66 44.11 85.57 44.5 85.57 44.9V45.8C85.57 46.2 85.66 46.6 85.84 47C86.02 47.4 86.28 47.76 86.62 48.08C86.96 48.38 87.38 48.63 87.88 48.83C88.38 49.01 88.95 49.1 89.59 49.1ZM85.42 66.32V58.76H91.72V56.09H85.33V53.69H94.57V61.1H88.27V63.86H89.56C90.74 63.86 91.89 63.83 93.01 63.77C94.13 63.73 95.28 63.64 96.46 63.5L96.67 65.96C95.37 66.12 94.1 66.22 92.86 66.26C91.62 66.3 90.31 66.32 88.93 66.32H85.42ZM101.53 66.59V56.12H95.95V53.69H104.38V66.59H101.53ZM101.44 52.31V38.54H104.38V52.31H101.44ZM121.371 43.61H111.621V56.33H113.211C115.171 56.33 117.001 56.27 118.701 56.15C120.421 56.01 122.131 55.81 123.831 55.55L124.221 58.04C122.441 58.36 120.611 58.59 118.731 58.73C116.871 58.85 114.821 58.91 112.581 58.91H108.651V41.03H121.371V43.61ZM133.191 51.11H128.931V66.2H125.961V38.54H128.931V48.53H133.191V51.11ZM78.8559 77.87V84.2H85.0659V86.72H78.8559V93.47H76.1559V86.72H69.9459V84.2H76.1559V77.87H78.8559ZM35.3236 117.11H31.0636V132.2H28.0936V104.54H31.0636V114.53H35.3236V117.11ZM17.6236 118.31C17.4836 118.65 17.2736 118.99 16.9936 119.33C16.7336 119.67 16.3636 120.1 15.8836 120.62C15.2636 121.3 14.5536 122.04 13.7536 122.84C12.9536 123.62 12.0436 124.48 11.0236 125.42L9.07363 123.41C10.8936 121.79 12.4736 120.24 13.8136 118.76C14.2736 118.24 14.6536 117.76 14.9536 117.32C15.2536 116.88 15.4836 116.45 15.6436 116.03C15.8236 115.59 15.9436 115.15 16.0036 114.71C16.0836 114.25 16.1236 113.75 16.1236 113.21V106.55H19.1236V113.21C19.1236 113.81 19.1636 114.35 19.2436 114.83C19.3236 115.29 19.4536 115.74 19.6336 116.18C19.8136 116.6 20.0536 117.03 20.3536 117.47C20.6736 117.89 21.0636 118.35 21.5236 118.85C22.1636 119.55 22.8336 120.24 23.5336 120.92C24.2336 121.58 25.0336 122.31 25.9336 123.11L24.0136 125.15C22.9736 124.19 22.0936 123.36 21.3736 122.66C20.6736 121.94 20.0336 121.27 19.4536 120.65C19.0336 120.19 18.6536 119.76 18.3136 119.36C17.9936 118.96 17.7736 118.61 17.6536 118.31H17.6236ZM57.0842 122.3V132.17H40.2242V122.3H57.0842ZM36.5342 119.45V111.38H45.8942V108.32H36.5342V105.8H48.8342V113.84H39.4742V116.93H41.9942C42.8142 116.93 43.6142 116.93 44.3942 116.93C45.1742 116.91 45.9542 116.88 46.7342 116.84C47.5142 116.8 48.3142 116.75 49.1342 116.69C49.9542 116.61 50.8342 116.51 51.7742 116.39L52.0442 118.85C51.2042 118.95 50.3942 119.04 49.6142 119.12C48.8342 119.2 48.0342 119.27 47.2142 119.33C46.4142 119.37 45.5642 119.4 44.6642 119.42C43.7842 119.44 42.7942 119.45 41.6942 119.45H36.5342ZM54.1442 120.95V104.54H57.0842V111.29H61.0142V113.87H57.0842V120.95H54.1442ZM43.1642 129.65H54.1442V124.82H43.1642V129.65ZM64.6847 132.38V125.45H79.8647V123.41H64.5347V120.98H82.7747V127.82H67.5947V129.95H83.5847V132.38H64.6847ZM86.4347 116.6V119.06H61.0547V116.6H86.4347ZM73.7447 104.69C75.1247 104.69 76.3547 104.81 77.4347 105.05C78.5347 105.27 79.4647 105.59 80.2247 106.01C80.9847 106.43 81.5647 106.94 81.9647 107.54C82.3847 108.12 82.5947 108.76 82.5947 109.46V110.18C82.5947 110.88 82.3847 111.53 81.9647 112.13C81.5647 112.71 80.9847 113.21 80.2247 113.63C79.4647 114.05 78.5347 114.38 77.4347 114.62C76.3547 114.84 75.1247 114.95 73.7447 114.95C72.3647 114.95 71.1247 114.84 70.0247 114.62C68.9447 114.38 68.0247 114.05 67.2647 113.63C66.5047 113.21 65.9147 112.71 65.4947 112.13C65.0947 111.53 64.8947 110.88 64.8947 110.18V109.46C64.8947 108.76 65.0947 108.12 65.4947 107.54C65.9147 106.94 66.5047 106.43 67.2647 106.01C68.0247 105.59 68.9447 105.27 70.0247 105.05C71.1247 104.81 72.3647 104.69 73.7447 104.69ZM73.7447 112.49C75.6447 112.49 77.1047 112.26 78.1247 111.8C79.1647 111.32 79.6847 110.76 79.6847 110.12V109.52C79.6847 108.88 79.1647 108.33 78.1247 107.87C77.1047 107.39 75.6447 107.15 73.7447 107.15C71.8447 107.15 70.3747 107.39 69.3347 107.87C68.3147 108.33 67.8047 108.88 67.8047 109.52V110.12C67.8047 110.76 68.3147 111.32 69.3347 111.8C70.3747 112.26 71.8447 112.49 73.7447 112.49ZM109.275 113.18C109.275 113.84 109.135 114.53 108.855 115.25C108.595 115.95 108.175 116.59 107.595 117.17C107.035 117.75 106.325 118.23 105.465 118.61C104.605 118.99 103.585 119.18 102.405 119.18C101.225 119.18 100.205 118.99 99.3453 118.61C98.4853 118.23 97.7653 117.75 97.1853 117.17C96.6253 116.59 96.2053 115.95 95.9253 115.25C95.6653 114.53 95.5353 113.84 95.5353 113.18V111.68C95.5353 111.02 95.6653 110.34 95.9253 109.64C96.2053 108.92 96.6253 108.27 97.1853 107.69C97.7653 107.11 98.4853 106.63 99.3453 106.25C100.205 105.87 101.225 105.68 102.405 105.68C103.585 105.68 104.605 105.87 105.465 106.25C106.325 106.63 107.035 107.11 107.595 107.69C108.175 108.27 108.595 108.92 108.855 109.64C109.135 110.34 109.275 111.02 109.275 111.68V113.18ZM106.965 120.89H109.905V123.59C109.905 124.01 109.935 124.38 109.995 124.7C110.055 125 110.175 125.29 110.355 125.57C110.555 125.83 110.815 126.08 111.135 126.32C111.475 126.56 111.915 126.83 112.455 127.13C113.115 127.49 113.945 127.9 114.945 128.36C115.945 128.82 117.195 129.36 118.695 129.98L117.495 132.35C116.175 131.79 115.025 131.26 114.045 130.76C113.085 130.28 112.265 129.87 111.585 129.53C110.625 129.03 109.905 128.61 109.425 128.27C108.965 127.93 108.645 127.62 108.465 127.34C108.285 127.66 107.965 127.99 107.505 128.33C107.065 128.69 106.325 129.13 105.285 129.65C104.625 129.99 103.815 130.39 102.855 130.85C101.895 131.31 100.755 131.82 99.4353 132.38L98.1753 129.98C99.6553 129.38 100.905 128.85 101.925 128.39C102.945 127.93 103.785 127.51 104.445 127.13C104.965 126.83 105.385 126.55 105.705 126.29C106.045 126.03 106.305 125.77 106.485 125.51C106.665 125.23 106.785 124.94 106.845 124.64C106.925 124.34 106.965 123.99 106.965 123.59V120.89ZM106.425 111.83C106.425 111.39 106.345 110.96 106.185 110.54C106.025 110.12 105.775 109.74 105.435 109.4C105.115 109.06 104.695 108.79 104.175 108.59C103.675 108.37 103.085 108.26 102.405 108.26C101.705 108.26 101.105 108.37 100.605 108.59C100.105 108.79 99.6853 109.06 99.3453 109.4C99.0253 109.74 98.7853 110.12 98.6253 110.54C98.4653 110.96 98.3853 111.39 98.3853 111.83V113.03C98.3853 113.47 98.4653 113.9 98.6253 114.32C98.7853 114.74 99.0253 115.12 99.3453 115.46C99.6853 115.8 100.105 116.08 100.605 116.3C101.105 116.5 101.705 116.6 102.405 116.6C103.085 116.6 103.675 116.5 104.175 116.3C104.695 116.08 105.115 115.8 105.435 115.46C105.775 115.12 106.025 114.74 106.185 114.32C106.345 113.9 106.425 113.47 106.425 113.03V111.83ZM114.345 122.3V104.54H117.285V122.3H114.345ZM134.276 109.61H124.526V122.33H126.116C128.076 122.33 129.906 122.27 131.606 122.15C133.326 122.01 135.036 121.81 136.736 121.55L137.126 124.04C135.346 124.36 133.516 124.59 131.636 124.73C129.776 124.85 127.726 124.91 125.486 124.91H121.556V107.03H134.276V109.61ZM146.096 117.11H141.836V132.2H138.866V104.54H141.836V114.53H146.096V117.11Z" fill="white"/>
</svg>
